<?xml version="1.0" encoding="utf-8"?>
<!-- Generator: Adobe Illustrator 28.0.0, SVG Export Plug-In . SVG Version: 6.00 Build 0)  -->
<svg version="1.1" id="Слой_1" xmlns="http://www.w3.org/2000/svg" xmlns:xlink="http://www.w3.org/1999/xlink" x="0px" y="0px"
	 viewBox="0 0 256 256" style="enable-background:new 0 0 256 256;" xml:space="preserve">
<style type="text/css">
	.st0{fill:#FFFFFF;}
</style>
<g>
	<g>
		<g>
			<path class="st0" d="M123.7,2C121.8,3.8,87.3,40.7,82.5,46c-1.4,1.6-1.7,1.5-8.6-6c-5.8-6.2-7.6-7.6-9.7-7.6
				c-2.3,0-5.2,2.7-24.2,23.1C28.1,68.1,18,79.2,17.5,80.2c-1.3,2-1.2,6.4,0.1,9.6c1.1,2.4,6.5,9.1,9.1,11.1
				c1.1,0.8-0.4,2.7-9.1,11.9c-5.7,6.1-10.7,12.1-11.1,13.4c-1.6,5.4,2.8,14.4,9.7,19.9c1.9,1.5,3.3,3,3.2,3.3
				c-0.1,0.4-4.1,4.9-9,9.9c-4.9,5.2-9,9.9-9.3,10.4c-0.3,0.5-0.6,2.4-0.6,4.2c0,12.2,14.9,25.2,37,32.3l6.9,2.2l0.4,10.7l0.4,10.7
				l2.8,3.1c7.4,8.7,25.8,8.3,32.8-0.5c2.7-3.4,2.9-3.9,2.9-9.9c0-7.1,0.1-7.2,5.4-4.9c1.8,0.8,6.5,2.2,10.3,3.1l6.9,1.8l0.4,11.4
				c0.4,13.6,1.2,15.3,7.4,19.3c4,2.4,5.1,2.7,13.9,2.7c9,0,9.8-0.1,13.9-2.7c6.4-3.9,6.9-5.6,7.4-19.3l0.4-11.4l6.9-1.8
				c3.8-0.9,8.4-2.4,10.3-3.1c5.3-2.3,5.4-2.2,5.4,4.9c0,6.1,0.1,6.5,2.9,9.9c7,8.8,25.4,9.1,32.8,0.5l2.8-3.1l0.4-10.7l0.4-10.7
				l6.9-2.2c22.1-7.1,37-20.1,37-32.3c0-1.8-0.3-3.7-0.6-4.2c-0.3-0.5-4.5-5.3-9.3-10.4c-4.9-5-8.9-9.6-9-9.9
				c-0.1-0.3,1.3-1.8,3.2-3.3c6.9-5.4,11.6-15.2,9.7-20.1c-0.4-1.1-5.5-7.1-11.2-13.2c-10.1-10.8-10.3-11-8.6-12.5
				c6.9-5.8,10.8-13.6,9.2-18.7c-0.4-1.2-10.6-12.9-22.7-25.8c-19.3-20.7-22.2-23.6-24.6-23.6c-2.2,0-3.9,1.4-9.7,7.6l-7.1,7.6
				l-4.2-4.5c-2.3-2.4-10.3-11-17.6-18.8C131.9,1.1,130.7,0,128.4,0C126.8-0.1,125,0.8,123.7,2z M151.7,42l22.8,24.4l-2.1,2.2
				c-1.2,1.2-5.3,4.1-9.2,6.5c-7.4,4.5-9,6.8-8.1,11.3c0.2,1.4,6.9,9.2,16.7,19.8c13.8,14.8,16.2,17.8,15.3,18.8
				c-1.5,2.4-10.5,9.4-16,12.5c-5.4,3.1-6.6,5.3-5.6,10.2c0.2,1.4,6.3,8.4,15.4,18.3l15,16.1l-3.1,3.4c-9.1,10-27.5,19.3-45.4,22.5
				c-10.3,2-28.9,2-39.2,0c-17.9-3.3-36.4-12.5-45.4-22.5l-3.1-3.4l15-16.1c9.2-9.9,15.2-17,15.4-18.3c1.1-5.2-0.1-6.8-8.3-11.9
				c-4.3-2.6-9.3-6.4-11.1-8.4l-3.2-3.7l16-17.1c8.9-9.5,16.4-18.3,16.9-19.5c1.7-4.7-0.1-7.3-8.7-12.6c-12.6-7.7-13.9-4.5,12.6-33
				C117,27.9,127.7,17,128.1,17.2C128.6,17.6,139.2,28.6,151.7,42z M68.4,53.4l3.3,3.7l-1.7,3c-3.6,6-0.2,14.6,8.4,22.1
				c2.7,2.3,5.1,4.5,5.1,4.9c0.1,0.3-5.3,6.4-12.1,13.6c-15.9,16.8-17.1,18.4-16.3,22.8c1.2,7.5,5.9,14.5,14.1,20.9
				c3.8,2.8,4.4,3.8,3.6,4.7c-0.5,0.7-5.8,6.2-11.7,12.5s-11.3,12.2-12,13.2c-2.8,4.1-1.3,12.2,3.6,18.7l1.6,2.3l-3.8-0.7
				c-6.6-1.2-17.4-5-23.1-8s-13.9-9.4-13.9-10.6c0-0.4,5-6.1,11-12.6c6.6-7.1,11.3-12.9,11.6-14.2c0.9-4.7-0.6-7.1-7.2-11.3
				c-5.8-3.5-10.1-7.5-9.2-8.3c7.7-7.7,23.5-25.6,24.2-27.4c1.7-4.5,0.2-7.3-6.2-11c-3.1-1.9-6-4.1-6.6-4.7
				c-0.6-1.1,2.4-4.7,15.8-19.1C56.1,57.9,64,50,64.3,50C64.7,49.8,66.6,51.4,68.4,53.4z M209.2,67.8c12.8,13.8,16.3,17.9,15.7,18.8
				c-0.4,0.7-3.3,2.7-6.5,4.7c-6.5,3.8-8,6.6-6.3,11.3c0.5,1.5,5.1,7.1,10.1,12.3c5.1,5.3,10.3,11,11.8,12.6l2.6,2.8l-1.6,1.9
				c-0.9,1.1-4.4,3.8-7.9,6c-6.6,4.2-8.2,6.5-7.2,11.3c0.3,1.5,4.6,6.6,11.6,14.1c6.2,6.5,11,12.1,11,12.5c0,1.1-9.2,8.3-14.4,11
				c-5,2.7-16.2,6.5-22.6,7.7l-3.8,0.7l2.1-3.1c4-6,5.6-12.7,3.8-16.5c-0.4-0.8-6-7.2-12.5-14.2s-12.1-13-12.4-13.4
				c-0.4-0.4,0.6-1.8,2.3-2.8c11.7-8.8,18-19.7,15.4-26.7c-0.5-1.4-7-8.9-14.5-16.8c-7.4-8-13.6-14.6-13.5-14.9
				c0.1-0.4,2.4-2.6,5.1-4.9c5.8-5,9.1-10.3,9.7-16c0.4-3.4,0.1-4.5-1.4-6.4l-1.8-2.4l3.5-3.8c1.9-2,3.8-3.7,4.3-3.4
				C192.3,50,200.1,58.2,209.2,67.8z M72.3,216.8v6.1l-2.8,0.9c-1.6,0.5-3.9,1.1-5.2,1.1c-1.2,0-3.6-0.5-5.1-1.1l-2.9-0.9v-6.1v-6.2
				h8h8V216.8z M199.7,216.8v6.1l-2.8,0.9c-1.6,0.5-3.9,1.1-5.2,1.1c-1.2,0-3.6-0.5-5.1-1.1l-2.9-0.9v-6.1v-6.2h8h8L199.7,216.8
				L199.7,216.8z M137.9,232.3v7.9l-3.3,1.1c-1.9,0.5-4.9,1.1-6.6,1.1s-4.6-0.5-6.6-1.1l-3.3-1.1v-7.9v-7.7h9.9h9.9V232.3z"/>
		</g>
	</g>
</g>
</svg>
